<svg xmlns="http://www.w3.org/2000/svg" xmlns:xlink="http://www.w3.org/1999/xlink" viewBox="0 0 160 76" width="160" height="76" preserveAspectRatio="xMidYMid meet" style="width: 100%; height: 100%; transform: translate3d(0px, 0px, 0px); content-visibility: visible;"><defs><clipPath id="__lottie_element_2"><rect width="160" height="76" x="0" y="0"></rect></clipPath></defs><g clip-path="url(#__lottie_element_2)"><g transform="matrix(1,0,0,1,0,0)" opacity="1" style="display: block;"><g opacity="1" transform="matrix(1,0,0,1,79.19499969482422,38)"><path fill="rgb(255,255,255)" fill-opacity="1" d=" M70.50599670410156,-12.666999816894531 C73.375,-12.666999816894531 79.18299865722656,-13.237000465393066 79.18299865722656,-7.533999919891357 C79.18299865722656,-7.533999919891357 79.19499969482422,4.019999980926514 79.17900085449219,6.333000183105469 C79.17900085449219,12.666000366210938 75.51799774169922,12.57699966430664 71.08799743652344,12.57699966430664 C71.08799743652344,12.57699966430664 71.09500122070312,15.654999732971191 71.09500122070312,18.910999298095703 C71.09500122070312,31.326000213623047 60.481998443603516,37.880001068115234 50.77899932861328,37.90999984741211 C14.097999572753906,38.02199935913086 -22.586999893188477,38.04399871826172 -59.268001556396484,37.89799880981445 C-70.18399810791016,37.85300064086914 -78.61100006103516,29.365999221801758 -78.94200134277344,18.051000595092773 C-79.2959976196289,6.03000020980835 -79.26599884033203,-6.017000198364258 -78.93800354003906,-18.04199981689453 C-78.62200164794922,-29.69300079345703 -70.00199890136719,-37.9109992980957 -58.37900161743164,-37.9370002746582 C-22.312000274658203,-38.01900100708008 13.760000228881836,-38.01900100708008 49.827999114990234,-37.95199966430664 C61.479000091552734,-37.92900085449219 69.84700012207031,-29.749000549316406 70.48999786376953,-18.0939998626709 C70.57599639892578,-16.56100082397461 70.50599670410156,-14.449999809265137 70.50599670410156,-12.666999816894531z M-4.251999855041504,-30.395999908447266 C-21.89900016784668,-30.395999908447266 -39.54600143432617,-30.433000564575195 -57.19300079345703,-30.381000518798828 C-66.26799774169922,-30.354999542236328 -71.62899780273438,-25.43000030517578 -71.68499755859375,-16.434999465942383 C-71.75599670410156,-5.486999988555908 -71.75199890136719,5.466000080108643 -71.68499755859375,16.415000915527344 C-71.63300323486328,25.187999725341797 -66.28199768066406,30.323999404907227 -57.64699935913086,30.339000701904297 C-22.04800033569336,30.402000427246094 13.550999641418457,30.413000106811523 49.15399932861328,30.350000381469727 C57.80099868774414,30.334999084472656 63.040000915527344,25.17300033569336 63.0890007019043,16.410999298095703 C63.14799880981445,5.76800012588501 63.11800003051758,-4.874000072479248 63.0890007019043,-15.515999794006348 C63.0620002746582,-25.714000701904297 58.05799865722656,-30.385000228881836 47.766998291015625,-30.395999908447266 C30.429000854492188,-30.417999267578125 13.086000442504883,-30.402999877929688 -4.251999855041504,-30.395999908447266z"></path></g><g opacity="1" transform="matrix(1,0,0,1,74.94200134277344,37.93199920654297)"><path fill="rgb(255,255,255)" fill-opacity="1" d=" M-50.448001861572266,-26.33799934387207 C-58.512001037597656,-26.315000534057617 -62.91999816894531,-21.937999725341797 -62.96900177001953,-13.944999694824219 C-63.03200149536133,-4.216000080108643 -63.02899932861328,4.216000080108643 -62.96900177001953,13.944999694824219 C-62.92300033569336,21.742000579833984 -58.525001525878906,26.290000915527344 -50.85100173950195,26.31800079345703 C-42.31700134277344,26.349000930786133 5.995999813079834,26.375 12.925999641418457,26.3439998626709 C18.558000564575195,26.319000244140625 16.308000564575195,17.81800079345703 16.229000091552734,17.790000915527344 C13.057999610900879,3.568000078201294 7.558000087738037,-20.93199920654297 7.479000091552734,-20.530000686645508 C6.308000087738037,-25.43199920654297 5.559000015258789,-26.18199920654297 -2.11899995803833,-26.253000259399414 C-17.524999618530273,-26.395999908447266 -34.76599884033203,-26.384000778198242 -50.448001861572266,-26.33799934387207z"></path></g></g></g></svg>